<?xml version="1.0" encoding="UTF-8"?><svg id="uuid-5423e1c9-a5e8-4b6f-9234-d5b0a547a7dd" xmlns="http://www.w3.org/2000/svg" viewBox="0 0 500 500"><defs><style>.uuid-5677f3b8-1fa7-4b62-91dc-4c8a70aca1d8{fill:#0c1d77;}.uuid-5677f3b8-1fa7-4b62-91dc-4c8a70aca1d8,.uuid-6e9cded9-3a65-4de3-9d09-d84233ca4ef1{stroke-width:0px;}.uuid-6e9cded9-3a65-4de3-9d09-d84233ca4ef1{fill:#fff;}</style></defs><rect class="uuid-5677f3b8-1fa7-4b62-91dc-4c8a70aca1d8" width="500" height="500"/><path class="uuid-6e9cded9-3a65-4de3-9d09-d84233ca4ef1" d="M382,248.82c-21.82,0-39.5,17.68-39.5,39.5s17.68,39.5,39.5,39.5,39.5-17.68,39.5-39.5-17.68-39.5-39.5-39.5ZM382.5,310.82c-12.15,0-22-9.85-22-22s9.85-22,22-22,22,9.85,22,22-9.85,22-22,22Z"/><path class="uuid-6e9cded9-3a65-4de3-9d09-d84233ca4ef1" d="M474.49,255.82h-33.99v-4h33.54c-4.01-19.7-34.07-35-70.54-35h-76v-.06l-6.97-6.97-37.97-37.97h-105.38l-26,10-91.01,35-34.67,13.33v10.56c0,3.81.39,7.52,1.12,11.11h32.88v4h-31.9c6.56,23.09,27.81,40,53.01,40h2.79c-.59-2.91-.9-5.92-.9-9,0-24.85,20.15-45,45-45s45,20.15,45,45c0,3.08-.31,6.09-.9,9h165.8c-.59-2.91-.9-5.92-.9-9,0-24.85,20.15-45,45-45s45,20.15,45,45c0,2.37-.18,4.71-.54,6.98,28.2-5.23,48.54-20.03,48.54-37.48,0-.17,0-.33-.01-.5h0ZM219.5,210.82h-104.82l75.4-29h29.42v29ZM307.32,210.82h-77.82v-29h48.87l23.93,23.93,5.02,5.03v.04h0Z"/><path class="uuid-6e9cded9-3a65-4de3-9d09-d84233ca4ef1" d="M127.06,249.17c-21.82,0-39.5,17.68-39.5,39.5s17.68,39.5,39.5,39.5,39.5-17.68,39.5-39.5-17.68-39.5-39.5-39.5ZM127.56,311.18c-12.15,0-22-9.85-22-22s9.85-22,22-22,22,9.85,22,22-9.85,22-22,22Z"/></svg>