<?xml version="1.0" encoding="utf-8"?>
<!-- Generator: Adobe Illustrator 28.3.0, SVG Export Plug-In . SVG Version: 6.00 Build 0)  -->
<svg version="1.1" id="uuid-27c9e33c-d87b-4d81-857d-a7cfc539bfcf"
	 xmlns="http://www.w3.org/2000/svg" xmlns:xlink="http://www.w3.org/1999/xlink" x="0px" y="0px" viewBox="0 0 500 500"
	 style="enable-background:new 0 0 500 500;" xml:space="preserve">
<style type="text/css">
	.st0{fill:#0C1D77;}
	.st1{fill:#FFFFFF;}
</style>
<rect class="st0" width="500" height="500"/>
<path class="st1" d="M382,248.8c-21.8,0-39.5,17.7-39.5,39.5s17.7,39.5,39.5,39.5s39.5-17.7,39.5-39.5S403.8,248.8,382,248.8z
	 M382.5,310.8c-12.1,0-22-9.9-22-22c0-12.2,9.9-22,22-22s22,9.8,22,22C404.5,301,394.6,310.8,382.5,310.8z"/>
<path class="st1" d="M474.5,255.8h-34v-4H474c-4-19.7-34.1-35-70.5-35h-76v-0.1l-7-7l-38-38H177.2l-26,10l-91,35l-34.7,13.3v10.6
	c0,3.8,0.4,7.5,1.1,11.1h32.9v4H27.6c6.6,23.1,27.8,40,53,40h2.8c-0.6-2.9-0.9-5.9-0.9-9c0-24.9,20.1-45,45-45s45,20.2,45,45
	c0,3.1-0.3,6.1-0.9,9h165.8c-0.6-2.9-0.9-5.9-0.9-9c0-24.9,20.1-45,45-45s45,20.2,45,45c0,2.4-0.2,4.7-0.5,7
	c28.2-5.2,48.5-20,48.5-37.5C474.5,256.2,474.5,256,474.5,255.8L474.5,255.8z M219.5,210.8H114.7l75.4-29h29.4V210.8z M307.3,210.8
	h-77.8v-29h48.9l23.9,23.9L307.3,210.8L307.3,210.8L307.3,210.8z"/>
<path class="st1" d="M127.1,249.2c-21.8,0-39.5,17.7-39.5,39.5s17.7,39.5,39.5,39.5s39.5-17.7,39.5-39.5S148.9,249.2,127.1,249.2z
	 M127.6,311.2c-12.2,0-22-9.8-22-22c0-12.1,9.8-22,22-22s22,9.9,22,22C149.6,301.3,139.7,311.2,127.6,311.2z"/>
</svg>
