<?xml version="1.0" encoding="utf-8"?>
<!-- Generator: Adobe Illustrator 28.3.0, SVG Export Plug-In . SVG Version: 6.00 Build 0)  -->
<svg version="1.1" id="uuid-51a64cb0-9a72-4126-b3e8-4d7ca8cac4e8"
	 xmlns="http://www.w3.org/2000/svg" xmlns:xlink="http://www.w3.org/1999/xlink" x="0px" y="0px" viewBox="0 0 500 500"
	 style="enable-background:new 0 0 500 500;" xml:space="preserve">
<style type="text/css">
	.st0{fill:#0C1D77;}
	.st1{fill:#FFFFFF;}
</style>
<rect class="st0" width="500" height="500"/>
<rect x="93.5" y="347.3" class="st1" width="88.8" height="29"/>
<rect x="295.8" y="347.3" class="st1" width="88.8" height="29"/>
<rect x="133.6" y="307.2" class="st1" width="209.1" height="26.5"/>
<rect x="133.6" y="266.2" class="st1" width="209.1" height="26.5"/>
<rect x="133.6" y="225.2" class="st1" width="209.1" height="26.5"/>
<polygon class="st1" points="302.6,169.8 302.6,184.3 342.7,184.3 342.7,210.7 133.6,210.7 133.6,184.3 173.7,184.3 173.7,169.8 
	133.6,169.8 133.6,143.3 173.7,143.3 173.7,123.7 302.6,123.7 302.6,143.3 342.7,143.3 342.7,169.8 "/>
<path class="st1" d="M440,225.2v26.5h-35.6c-1,46.3-7.3,81.9-14.8,81.9h-31.6V143.3h31.6c7.5,0,13.8,35.6,14.8,81.9H440z"/>
<path class="st1" d="M70,238.5c0,52.6,6.7,95.2,14.9,95.2h31.6V143.3H84.9C76.7,143.3,70,185.9,70,238.5z"/>
</svg>
