<?xml version="1.0" encoding="UTF-8"?><svg id="uuid-f86ca533-118b-4352-b3c0-2f8c4fe047aa" xmlns="http://www.w3.org/2000/svg" viewBox="0 0 500 500"><defs><style>.uuid-a066269f-d51c-4dac-bc0f-40c1933463b0{fill:#0c1d77;}.uuid-a066269f-d51c-4dac-bc0f-40c1933463b0,.uuid-578d2d78-4c71-48b1-a3fa-b055be30fe43{stroke-width:0px;}.uuid-578d2d78-4c71-48b1-a3fa-b055be30fe43{fill:#fff;}</style></defs><rect class="uuid-a066269f-d51c-4dac-bc0f-40c1933463b0" width="500" height="500"/><rect class="uuid-578d2d78-4c71-48b1-a3fa-b055be30fe43" x="93.47" y="347.3" width="88.77" height="29.02"/><rect class="uuid-578d2d78-4c71-48b1-a3fa-b055be30fe43" x="295.76" y="347.3" width="88.77" height="29.02"/><rect class="uuid-578d2d78-4c71-48b1-a3fa-b055be30fe43" x="133.59" y="307.19" width="209.11" height="26.46"/><rect class="uuid-578d2d78-4c71-48b1-a3fa-b055be30fe43" x="133.59" y="266.22" width="209.11" height="26.46"/><rect class="uuid-578d2d78-4c71-48b1-a3fa-b055be30fe43" x="133.59" y="225.25" width="209.11" height="26.46"/><polygon class="uuid-578d2d78-4c71-48b1-a3fa-b055be30fe43" points="302.58 169.77 302.58 184.28 342.7 184.28 342.7 210.74 133.59 210.74 133.59 184.28 173.7 184.28 173.7 169.77 133.59 169.77 133.59 143.31 173.7 143.31 173.7 123.68 302.58 123.68 302.58 143.31 342.7 143.31 342.7 169.77 302.58 169.77"/><path class="uuid-578d2d78-4c71-48b1-a3fa-b055be30fe43" d="M440,225.25v26.46h-35.57c-1.01,46.3-7.25,81.94-14.79,81.94h-31.58v-190.33h31.58c7.54,0,13.78,35.63,14.79,81.94h35.57Z"/><path class="uuid-578d2d78-4c71-48b1-a3fa-b055be30fe43" d="M70,238.48c0,52.56,6.69,95.17,14.94,95.17h31.58v-190.33h-31.58c-8.24,0-14.94,42.61-14.94,95.17Z"/></svg>