<?xml version="1.0" encoding="UTF-8"?><svg id="uuid-ee54f3ad-ede3-4056-bbaf-5aab122663a9" xmlns="http://www.w3.org/2000/svg" viewBox="0 0 500 500"><defs><style>.uuid-c1492ae3-b408-4f02-86a6-9f1c7706cea3{fill:#0c1d77;}.uuid-c1492ae3-b408-4f02-86a6-9f1c7706cea3,.uuid-8ab778e4-d163-4b32-82f1-604998fea0b1{stroke-width:0px;}.uuid-8ab778e4-d163-4b32-82f1-604998fea0b1{fill:#fff;}</style></defs><rect class="uuid-c1492ae3-b408-4f02-86a6-9f1c7706cea3" width="500" height="500"/><path class="uuid-8ab778e4-d163-4b32-82f1-604998fea0b1" d="M100.74,112.23c-19.01,0-34.44,15.43-34.44,34.44,0,10.84,5.09,21.03,13.78,27.56l156.15,117.11c8.18,6.1,19.37,6.1,27.56,0l156.15-117.11c8.68-6.53,13.78-16.72,13.78-27.56,0-19.02-15.43-34.44-34.44-34.44H100.74ZM66.3,192.6v149.26c0,25.33,20.59,45.93,45.93,45.93h275.55c25.33,0,45.93-20.59,45.93-45.93v-149.26l-156.15,117.11c-16.36,12.27-38.75,12.27-55.11,0l-156.15-117.11Z"/></svg>