<?xml version="1.0" encoding="UTF-8"?><svg id="uuid-d3184b46-b85b-4fac-89a7-2c741e9260ea" xmlns="http://www.w3.org/2000/svg" viewBox="0 0 367.5 275.6"><defs><style>.uuid-8fdd2416-baf2-4cfc-827a-69f9896cb4d7{fill:#fff;stroke-width:0px;}</style></defs><path class="uuid-8fdd2416-baf2-4cfc-827a-69f9896cb4d7" d="M34.4,0C15.4,0,0,15.4,0,34.4c0,10.8,5.1,21,13.8,27.6l156.1,117.1c8.2,6.1,19.4,6.1,27.6,0l156.2-117.1c8.7-6.5,13.8-16.7,13.8-27.6C367.5,15.4,352.1,0,333.1,0H34.4ZM0,80.4v149.3C0,255,20.6,275.6,45.9,275.6h275.5c25.3,0,45.9-20.6,45.9-45.9V80.4l-156,117.1c-16.4,12.3-38.8,12.3-55.1,0L0,80.4Z"/></svg>