<?xml version="1.0" encoding="utf-8"?>
<!-- Generator: Adobe Illustrator 28.3.0, SVG Export Plug-In . SVG Version: 6.00 Build 0)  -->
<svg version="1.1" id="uuid-604dd338-bbf8-4568-9b55-e4f8797d9801"
	 xmlns="http://www.w3.org/2000/svg" xmlns:xlink="http://www.w3.org/1999/xlink" x="0px" y="0px" viewBox="0 0 500 500"
	 style="enable-background:new 0 0 500 500;" xml:space="preserve">
<style type="text/css">
	.st0{fill:#0C1D77;}
	.st1{fill:#FFFFFF;}
</style>
<rect class="st0" width="500" height="500"/>
<path class="st1" d="M100.7,112.2c-19,0-34.4,15.4-34.4,34.4c0,10.8,5.1,21,13.8,27.6l156.1,117.1c8.2,6.1,19.4,6.1,27.6,0
	l156.2-117.1c8.7-6.5,13.8-16.7,13.8-27.6c0-19-15.4-34.4-34.4-34.4H100.7L100.7,112.2z M66.3,192.6v149.3
	c0,25.3,20.6,45.9,45.9,45.9h275.5c25.3,0,45.9-20.6,45.9-45.9V192.6L277.6,309.7c-16.4,12.3-38.8,12.3-55.1,0L66.3,192.6z"/>
</svg>
