<?xml version="1.0" encoding="utf-8"?>
<!-- Generator: Adobe Illustrator 28.3.0, SVG Export Plug-In . SVG Version: 6.00 Build 0)  -->
<svg version="1.1" id="uuid-0c772841-37a7-4e13-9fd3-2ff4ca1c80d1"
	 xmlns="http://www.w3.org/2000/svg" xmlns:xlink="http://www.w3.org/1999/xlink" x="0px" y="0px" viewBox="0 0 500 500"
	 style="enable-background:new 0 0 500 500;" xml:space="preserve">
<style type="text/css">
	.st0{fill:#0C1D77;}
	.st1{fill:#FFFFFF;}
</style>
<rect class="st0" width="500" height="500"/>
<path class="st1" d="M114,145.4v270.3l4.2,4.2h119l4.2-4.2V145.4l-4.2-4.2h-119L114,145.4z M80,84.2v331.5l4.2,4.2h8.5l4.2-4.2
	V124.2h306v291.5l4.2,4.2h8.5l4.2-4.2V84.2l-4.2-4.2H84.2L80,84.2z M199,112.7L186.2,94h25.5L199,112.7z M288.2,112.7L301,94
	l12.8,18.7H288.2z M262.8,420h119l4.2-4.2V145.4l-4.2-4.2h-119l-4.2,4.2v270.3L262.8,420z"/>
</svg>
