<?xml version="1.0" encoding="UTF-8"?><svg id="uuid-504ef787-6bc8-4148-93b5-054e0d74b485" xmlns="http://www.w3.org/2000/svg" viewBox="0 0 500 500"><defs><style>.uuid-bf19112b-ab41-45b3-843b-27ce41863e41{fill:#0c1d77;}.uuid-bf19112b-ab41-45b3-843b-27ce41863e41,.uuid-d88c471e-e346-4474-af43-eedee2dc9310{stroke-width:0px;}.uuid-d88c471e-e346-4474-af43-eedee2dc9310{fill:#fff;}</style></defs><rect class="uuid-bf19112b-ab41-45b3-843b-27ce41863e41" width="500" height="500"/><path class="uuid-d88c471e-e346-4474-af43-eedee2dc9310" d="M114,145.45v270.3l4.25,4.25h119l4.25-4.25V145.45l-4.25-4.25h-119l-4.25,4.25ZM80,84.25v331.5l4.25,4.25h8.5l4.25-4.25V124.2h306v291.55l4.25,4.25h8.5l4.25-4.25V84.25l-4.25-4.25H84.25l-4.25,4.25ZM199,112.73l-12.75-18.7h25.5l-12.75,18.7ZM288.25,112.73l12.75-18.7,12.75,18.7h-25.5ZM262.75,420h119l4.25-4.25V145.45l-4.25-4.25h-119l-4.25,4.25v270.3l4.25,4.25Z"/></svg>