<?xml version="1.0" encoding="utf-8"?>
<!-- Generator: Adobe Illustrator 28.3.0, SVG Export Plug-In . SVG Version: 6.00 Build 0)  -->
<svg version="1.1" id="uuid-ca065af7-6636-4846-bb88-f0632825a9a7"
	 xmlns="http://www.w3.org/2000/svg" xmlns:xlink="http://www.w3.org/1999/xlink" x="0px" y="0px" viewBox="0 0 500 500"
	 style="enable-background:new 0 0 500 500;" xml:space="preserve">
<style type="text/css">
	.st0{fill:#0C1D77;stroke:#000000;stroke-miterlimit:10;}
	.st1{fill:#FFFFFF;}
	.st2{fill:none;stroke:#FFFFFF;stroke-width:5;stroke-miterlimit:10;}
</style>
<rect class="st0" width="500" height="500"/>
<path class="st1" d="M373.2,304.2v106.1H351l-3.7-3.7v-17h-14v25.9c-1.5,1.5-2.3,2.3-3.7,3.7h-3v2.6h-15.6v-2.6H290v9.7
	c-2.9,2.9-4.6,4.6-7.5,7.5h-97.3c-2.9-2.9-4.6-4.6-7.5-7.5v-9.7h-21.8v2.6h-15.6v-2.6h-3.6c-5.5,0-9.9-25.6-9.9-57.2
	s4.4-57.2,9.9-57.2h3.6v-2.6h15.6v2.6h5.2V245c6-6,10.9-10.9,15.6-15.6v-95.7c0-6.6,1.4-13,3.9-18.8c6.9-4.5,12.1-7.9,19-12.4h68.6
	c6.9,4.5,12.1,7.9,19,12.4c2.5,5.8,3.9,12.2,3.9,18.8v95.7c4.7,4.7,9.6,9.6,15.6,15.6v59.7h4.2v-2.6h15.6v2.6h3l3.7,3.7v15.5h14v-16
	c1.5-1.5,2.3-2.3,3.7-3.7H373.2L373.2,304.2z"/>
<rect x="202.2" y="66.2" class="st2" width="63.4" height="36.2"/>
</svg>
