<?xml version="1.0" encoding="UTF-8"?><svg id="uuid-4bee7a44-21a2-4595-ba56-f29987b105af" xmlns="http://www.w3.org/2000/svg" viewBox="0 0 501 501"><defs><style>.uuid-44146e92-ead0-4493-9a73-a206ad771258{fill:none;stroke:#fff;stroke-width:5px;}.uuid-44146e92-ead0-4493-9a73-a206ad771258,.uuid-aeba4afb-07a0-4ce1-9eaa-06345834a5c3{stroke-miterlimit:10;}.uuid-aeba4afb-07a0-4ce1-9eaa-06345834a5c3{fill:#0c1d77;stroke:#000;}.uuid-67ca88d9-24a4-49d5-af15-7df9950baa0c{fill:#fff;stroke-width:0px;}</style></defs><rect class="uuid-aeba4afb-07a0-4ce1-9eaa-06345834a5c3" x=".5" y=".5" width="500" height="500"/><path class="uuid-67ca88d9-24a4-49d5-af15-7df9950baa0c" d="M373.72,304.69v106.07h-22.24l-3.75-3.75v-17.05h-14.04v25.89c-1.46,1.46-2.29,2.28-3.75,3.75h-3.01v2.59h-15.6v-2.59h-20.8v9.66c-2.92,2.93-4.57,4.57-7.5,7.5h-97.31c-2.92-2.93-4.57-4.57-7.5-7.5v-9.66h-21.84v2.59h-15.59v-2.59h-3.64c-5.46,0-9.88-25.61-9.88-57.2s4.42-57.19,9.88-57.19h3.64v-2.6h15.59v2.6h5.2v-59.74c5.98-5.98,10.89-10.89,15.59-15.59v-95.73c0-6.62,1.37-12.96,3.86-18.79,6.91-4.5,12.13-7.91,19.04-12.4h68.6c6.9,4.49,12.12,7.9,19.03,12.4,2.5,5.83,3.86,12.17,3.86,18.79v95.73c4.71,4.7,9.62,9.61,15.59,15.59v59.74h4.16v-2.6h15.6v2.6h3.01l3.75,3.75v15.49h14.04v-16.01c1.46-1.47,2.28-2.29,3.75-3.75h22.24,0Z"/><rect class="uuid-44146e92-ead0-4493-9a73-a206ad771258" x="202.66" y="66.75" width="63.44" height="36.21"/></svg>